<svg width="1320" height="658" viewBox="0 0 1320 658" fill="none" xmlns="http://www.w3.org/2000/svg">
<g opacity="0.1" clip-path="url(#clip0_4017_2864)">
<mask id="mask0_4017_2864" style="mask-type:alpha" maskUnits="userSpaceOnUse" x="-81" y="-50" width="692" height="708">
<line x1="0.000114523" y1="30.5" x2="610" y2="30.5001" stroke="#1E1E21"/>
<line x1="0.000106894" y1="110.5" x2="610" y2="110.5" stroke="#1E1E21"/>
<line x1="9.92645e-05" y1="190.5" x2="610" y2="190.5" stroke="#1E1E21"/>
<line x1="9.54498e-05" y1="270.5" x2="610" y2="270.5" stroke="#1E1E21"/>
<line x1="8.78204e-05" y1="350.5" x2="610" y2="350.5" stroke="#1E1E21"/>
<line x1="8.0191e-05" y1="430.5" x2="610" y2="430.5" stroke="#1E1E21"/>
<line x1="7.25616e-05" y1="510.5" x2="610" y2="510.5" stroke="#1E1E21"/>
<line x1="6.49322e-05" y1="590.5" x2="610" y2="590.5" stroke="#1E1E21"/>
<line x1="-0.499939" y1="658" x2="-0.499847" y2="-49" stroke="#1E1E21"/>
<line x1="79.5001" y1="658" x2="79.5002" y2="-49" stroke="#1E1E21"/>
<line x1="159.5" y1="658" x2="159.5" y2="-49" stroke="#1E1E21"/>
<line x1="239.5" y1="658" x2="239.5" y2="-49" stroke="#1E1E21"/>
<line x1="319.5" y1="658" x2="319.5" y2="-49" stroke="#1E1E21"/>
<line x1="399.5" y1="658" x2="399.5" y2="-49" stroke="#1E1E21"/>
<line x1="479.5" y1="658" x2="479.5" y2="-49" stroke="#1E1E21"/>
<line x1="559.5" y1="658" x2="559.5" y2="-49" stroke="#1E1E21"/>
<rect x="0.000114441" y="31" width="80" height="80" fill="#1400FF"/>
<rect x="320" y="111" width="80" height="80" fill="#1400FF"/>
<rect x="160" y="271" width="80" height="80" fill="#1400FF"/>
<rect x="80.0001" y="351" width="80" height="80" fill="#1400FF"/>
<rect x="400" y="191" width="80" height="80" fill="#1400FF"/>
<rect x="400" y="511" width="80" height="79" fill="#1400FF"/>
<rect x="480" y="431" width="80" height="80" fill="#1400FF"/>
</mask>
<g mask="url(#mask0_4017_2864)">
<rect x="-6.99988" y="-49" width="617" height="707" fill="url(#paint0_radial_4017_2864)"/>
</g>
</g>
<g opacity="0.1" clip-path="url(#clip1_4017_2864)">
<mask id="mask1_4017_2864" style="mask-type:alpha" maskUnits="userSpaceOnUse" x="612" y="-40" width="709" height="691">
<line y1="-0.5" x2="610" y2="-0.5" transform="matrix(2.37959e-07 1 1 -2.16358e-07 613 41)" stroke="#1E1E21"/>
<line y1="-0.5" x2="610" y2="-0.5" transform="matrix(2.37959e-07 1 1 -2.16358e-07 693 41)" stroke="#1E1E21"/>
<line y1="-0.5" x2="610" y2="-0.5" transform="matrix(2.37959e-07 1 1 -2.16358e-07 773 41)" stroke="#1E1E21"/>
<line y1="-0.5" x2="610" y2="-0.5" transform="matrix(2.37959e-07 1 1 -2.16358e-07 853 41)" stroke="#1E1E21"/>
<line y1="-0.5" x2="610" y2="-0.5" transform="matrix(2.37959e-07 1 1 -2.16358e-07 933 41)" stroke="#1E1E21"/>
<line y1="-0.5" x2="610" y2="-0.5" transform="matrix(2.37959e-07 1 1 -2.16358e-07 1013 41)" stroke="#1E1E21"/>
<line y1="-0.5" x2="610" y2="-0.5" transform="matrix(2.37959e-07 1 1 -2.16358e-07 1093 41)" stroke="#1E1E21"/>
<line y1="-0.5" x2="610" y2="-0.5" transform="matrix(2.37959e-07 1 1 -2.16358e-07 1173 41)" stroke="#1E1E21"/>
<line y1="-0.5" x2="610" y2="-0.5" transform="matrix(2.37959e-07 1 1 -2.16358e-07 1253 41)" stroke="#1E1E21"/>
<line y1="-0.5" x2="707" y2="-0.5" transform="matrix(-1 1.82411e-07 1.83156e-07 1 1320 41)" stroke="#1E1E21"/>
<line y1="-0.5" x2="707" y2="-0.5" transform="matrix(-1 1.82411e-07 1.83156e-07 1 1320 121)" stroke="#1E1E21"/>
<line y1="-0.5" x2="707" y2="-0.5" transform="matrix(-1 1.82411e-07 1.83156e-07 1 1320 201)" stroke="#1E1E21"/>
<line y1="-0.5" x2="707" y2="-0.5" transform="matrix(-1 1.82411e-07 1.83156e-07 1 1320 281)" stroke="#1E1E21"/>
<line y1="-0.5" x2="707" y2="-0.5" transform="matrix(-1 1.82411e-07 1.83156e-07 1 1320 361)" stroke="#1E1E21"/>
<line y1="-0.5" x2="707" y2="-0.5" transform="matrix(-1 1.82411e-07 1.83156e-07 1 1320 441)" stroke="#1E1E21"/>
<line y1="-0.5" x2="707" y2="-0.5" transform="matrix(-1 1.82411e-07 1.83156e-07 1 1320 521)" stroke="#1E1E21"/>
<line y1="-0.5" x2="707" y2="-0.5" transform="matrix(-1 1.82411e-07 1.83156e-07 1 1320 601)" stroke="#1E1E21"/>
<rect width="80" height="80" transform="matrix(1.39071e-07 1 1 -1.39071e-07 693 41)" fill="#1400FF"/>
<rect width="80" height="80" transform="matrix(1.39071e-07 1 1 -1.39071e-07 773 361)" fill="#1400FF"/>
<rect width="80" height="80" transform="matrix(1.39071e-07 1 1 -1.39071e-07 933 201)" fill="#1400FF"/>
<rect width="80" height="80" transform="matrix(1.39071e-07 1 1 -1.39071e-07 1013 121)" fill="#1400FF"/>
<rect width="80" height="80" transform="matrix(1.39071e-07 1 1 -1.39071e-07 853 441)" fill="#1400FF"/>
<rect width="80" height="79" transform="matrix(1.39071e-07 1 1 -1.39071e-07 1173 441)" fill="#1400FF"/>
<rect width="80" height="80" transform="matrix(1.39071e-07 1 1 -1.39071e-07 1093 521)" fill="#1400FF"/>
</mask>
<g mask="url(#mask1_4017_2864)">
<rect width="617" height="707" transform="matrix(1.39071e-07 1 1 -1.39071e-07 613 34)" fill="url(#paint1_radial_4017_2864)"/>
</g>
</g>
<defs>
<radialGradient id="paint0_radial_4017_2864" cx="0" cy="0" r="1" gradientUnits="userSpaceOnUse" gradientTransform="translate(301.5 304.5) rotate(90) scale(353.5 308.5)">
<stop stop-color="white"/>
<stop offset="1" stop-color="#A3A3A3"/>
</radialGradient>
<radialGradient id="paint1_radial_4017_2864" cx="0" cy="0" r="1" gradientUnits="userSpaceOnUse" gradientTransform="translate(308.5 353.5) rotate(90) scale(353.5 308.5)">
<stop stop-color="white"/>
<stop offset="1" stop-color="#A3A3A3"/>
</radialGradient>
<clipPath id="clip0_4017_2864">
<rect width="617" height="707" fill="white" transform="translate(6.10352e-05 -49)"/>
</clipPath>
<clipPath id="clip1_4017_2864">
<rect width="617" height="707" fill="white" transform="matrix(1.39071e-07 1 1 -1.39071e-07 613 41)"/>
</clipPath>
</defs>
</svg>
