<svg width="154" height="60" viewBox="0 0 154 60" fill="none" xmlns="http://www.w3.org/2000/svg">
<g clip-path="url(#clip0_1416_11332)">
<path d="M36.4505 0C30.4536 0 24.7023 2.4201 20.4618 6.72792L6.62274 20.7868C2.38227 25.0946 0 30.9372 0 37.0294C0 49.7158 10.1235 60 22.6115 60C28.6085 60 34.3597 57.5798 38.6002 53.272L48.1728 43.5474C48.1728 43.5472 48.1729 43.5476 48.1728 43.5474L76.064 15.2132C78.0892 13.1558 80.836 12 83.7001 12C88.4952 12 92.5604 15.1748 93.9698 19.5681L102.772 10.6259C98.7566 4.23668 91.7154 0 83.7001 0C77.7032 0 71.9519 2.4201 67.7114 6.72792L30.2476 44.7868C28.2224 46.8442 25.4756 48 22.6115 48C16.6473 48 11.8124 43.0884 11.8124 37.0294C11.8124 34.1198 12.9502 31.3294 14.9754 29.272L28.8144 15.2132C30.8396 13.1558 33.5864 12 36.4505 12C41.2458 12 45.3108 15.175 46.7202 19.5684L55.5228 10.6261C51.5072 4.2368 44.466 0 36.4505 0Z" fill="#6B1AFF"/>
<path d="M77.4972 44.7868C75.472 46.8442 72.7252 48 69.8611 48C65.0667 48 61.0018 44.826 59.592 40.4334L50.7898 49.3754C54.8056 55.7638 61.8464 60 69.8611 60C75.8581 60 81.6093 57.5798 85.8498 53.272L123.314 15.2132C125.339 13.1558 128.086 12 130.95 12C136.914 12 141.749 16.9117 141.749 22.9706C141.749 25.8802 140.611 28.6706 138.586 30.728L124.747 44.7868C122.722 46.8442 119.975 48 117.111 48C112.316 48 108.251 44.8254 106.841 40.4324L98.039 49.3746C102.055 55.7636 109.096 60 117.111 60C123.108 60 128.859 57.5798 133.099 53.272L146.938 39.2132C151.179 34.9054 153.561 29.0628 153.561 22.9706C153.561 10.2843 143.438 0 130.95 0C124.953 0 119.202 2.4201 114.961 6.72792L77.4972 44.7868Z" fill="#6B1AFF"/>
</g>
<defs>
<clipPath id="clip0_1416_11332">
<rect width="153.561" height="60" fill="white"/>
</clipPath>
</defs>
</svg>
