<svg width="100" height="60" viewBox="0 0 100 60" fill="none" xmlns="http://www.w3.org/2000/svg">
<g clip-path="url(#clip0_1416_11036)">
<path d="M23.7368 0C19.8315 0 16.0863 1.57598 13.3249 4.38126L4.31277 13.5365C1.55135 16.3418 0 20.1465 0 24.1138C0 32.3752 6.59249 39.0724 14.7247 39.0724C18.63 39.0724 22.3753 37.4963 25.1367 34.691L31.3704 28.3583C31.3704 28.3582 31.3705 28.3585 31.3704 28.3583L49.5333 9.90693C50.8522 8.56715 52.6409 7.81447 54.506 7.81447C57.6286 7.81447 60.2759 9.88193 61.1937 12.7429L66.9259 6.91966C64.3109 2.75895 59.7256 0 54.506 0C50.6008 0 46.8555 1.57598 44.0941 4.38126L19.6974 29.1654C18.3786 30.5052 16.5899 31.2579 14.7247 31.2579C10.8408 31.2579 7.69231 28.0594 7.69231 24.1138C7.69231 22.219 8.43322 20.4019 9.75205 19.0621L18.7641 9.90693C20.0829 8.56715 21.8717 7.81447 23.7368 7.81447C26.8595 7.81447 29.5067 9.88202 30.4245 12.7431L36.1568 6.91981C33.5418 2.75903 28.9565 0 23.7368 0Z" fill="#6B1AFF"/>
<path d="M50.4667 29.1654C49.1478 30.5052 47.3591 31.2579 45.494 31.2579C42.3718 31.2579 39.7247 29.191 38.8067 26.3305L33.0746 32.1536C35.6897 36.3137 40.2747 39.0724 45.494 39.0724C49.3992 39.0724 53.1445 37.4963 55.9059 34.691L80.3026 9.90693C81.6214 8.56715 83.4101 7.81447 85.2753 7.81447C89.1592 7.81447 92.3077 11.013 92.3077 14.9586C92.3077 16.8533 91.5668 18.6705 90.2479 20.0103L81.2359 29.1654C79.917 30.5052 78.1283 31.2579 76.2632 31.2579C73.1408 31.2579 70.4936 29.1906 69.5756 26.3298L63.8436 32.153C66.4586 36.3136 71.0437 39.0724 76.2632 39.0724C80.1685 39.0724 83.9137 37.4963 86.6751 34.691L95.6872 25.5359C98.4486 22.7306 100 18.9259 100 14.9586C100 6.69718 93.4076 0 85.2753 0C81.37 0 77.6247 1.57598 74.8633 4.38126L50.4667 29.1654Z" fill="#6B1AFF"/>
</g>
<path d="M1.48993 59.9109V47.1794H6.57306C9.13216 47.1794 10.4117 48.316 10.4117 50.5893C10.4117 53.0644 8.66182 54.575 5.16206 55.121L4.82902 53.7321C7.3998 53.3463 8.68519 52.3224 8.68519 50.6605C8.68519 49.2479 7.93149 48.5416 6.42407 48.5416H3.11127V59.9109H1.48993Z" fill="#1B1B1B"/>
<path d="M12.8882 59.9109V47.1794H18.2342C20.618 47.1794 21.8099 48.1973 21.8099 50.2332C21.8099 51.8892 20.6443 53.1148 18.3131 53.9102L22.6162 59.9109H20.4778L16.4902 54.1862V53.1089C18.8857 52.7231 20.0834 51.7883 20.0834 50.3044C20.0834 49.1292 19.4174 48.5416 18.0852 48.5416H14.5095V59.9109H12.8882Z" fill="#1B1B1B"/>
<path d="M26.5388 47.1794V59.9109H24.9174V47.1794H26.5388Z" fill="#1B1B1B"/>
<path d="M29.9354 59.4658V57.9522C31.25 58.4271 32.6698 58.6645 34.1948 58.6645C36.3507 58.6645 37.4287 57.8632 37.4287 56.2606C37.4287 54.8955 36.6341 54.2129 35.0449 54.2129H33.4323C30.8089 54.2129 29.4972 53.0555 29.4972 50.7406C29.4972 48.3071 31.177 47.0903 34.5366 47.0903C35.9972 47.0903 37.3557 47.2684 38.6118 47.6245V49.1381C37.3557 48.6632 35.9972 48.4258 34.5366 48.4258C32.2579 48.4258 31.1186 49.1974 31.1186 50.7406C31.1186 52.1058 31.8898 52.7884 33.4323 52.7884H35.0449C37.715 52.7884 39.05 53.9458 39.05 56.2606C39.05 58.7535 37.4316 60 34.1948 60C32.6698 60 31.25 59.8219 29.9354 59.4658Z" fill="#1B1B1B"/>
<path d="M41.7368 59.9109V47.1794H43.7964L48.3975 57.8009L52.911 47.1794H54.8829V59.9109H53.4368V49.4675L48.9847 59.9109H47.7051L43.1829 49.4675V59.9109H41.7368Z" fill="#1B1B1B"/>
<path d="M59.4539 53.5095C59.4539 56.9462 60.9818 58.6645 64.0375 58.6645C67.029 58.6645 68.5247 56.9462 68.5247 53.5095C68.5247 50.1204 67.029 48.4258 64.0375 48.4258C60.9818 48.4258 59.4539 50.1204 59.4539 53.5095ZM57.7449 53.563C57.7449 49.2479 59.8425 47.0903 64.0375 47.0903C68.1683 47.0903 70.2337 49.2479 70.2337 53.563C70.2337 57.8543 68.1683 60 64.0375 60C59.8425 60 57.7449 57.8543 57.7449 53.563Z" fill="#1B1B1B"/>
<path d="M74.7259 47.1794V58.5755H81.2814V59.9109H73.1045V47.1794H74.7259Z" fill="#1B1B1B"/>
<path d="M85.423 47.1794V59.9109H83.8016V47.1794H85.423Z" fill="#1B1B1B"/>
<path d="M92.6583 53.5452L87.7242 47.1794H89.6961L93.6399 52.272L97.5837 47.1794H99.5556L94.6302 53.5452L99.5556 59.9109H97.5837L93.6399 54.8183L89.6961 59.9109H87.7242L92.6583 53.5452Z" fill="#1B1B1B"/>
<defs>
<clipPath id="clip0_1416_11036">
<rect width="100" height="39.0724" fill="white"/>
</clipPath>
</defs>
</svg>
