<?xml version="1.0" encoding="UTF-8"?>
<svg version="1.1" xmlns="http://www.w3.org/2000/svg" width="789" height="161">
<path d="M0 0 C2.8455204 3.40833646 5.18211602 6.83466984 7.36328125 10.69921875 C7.99500244 11.81248535 8.62672363 12.92575195 9.27758789 14.07275391 C9.77429489 14.95510712 9.77429489 14.95510712 10.28103638 15.85528564 C11.69495436 18.36686315 13.1185265 20.87292516 14.54136658 23.37945557 C15.27727543 24.67616536 16.01267376 25.97316501 16.74757385 27.27044678 C20.31957855 33.57436268 23.93633135 39.85209811 27.5625 46.125 C28.48349487 47.7196106 28.48349487 47.7196106 29.4230957 49.34643555 C30.66223343 51.4918156 31.9015719 53.63707971 33.14111328 55.78222656 C36.26324607 61.18670649 39.38136526 66.59350107 42.5 72 C43.11810547 73.07121094 43.73621094 74.14242187 44.37304688 75.24609375 C47.51222374 80.68646075 50.64999629 86.12762955 53.78515625 91.5703125 C59.86821708 102.12732086 65.9708767 112.67174146 72.125 123.1875 C76.93024568 131.40640534 81.68030821 139.65491617 86.375 147.9375 C86.94105957 148.93354248 87.50711914 149.92958496 88.09033203 150.95581055 C88.60450684 151.8662915 89.11868164 152.77677246 89.6484375 153.71484375 C90.10395996 154.52042725 90.55948242 155.32601074 91.02880859 156.15600586 C92 158 92 158 92 159 C31.61 159 -28.78 159 -91 159 C-89.57181199 154.71543596 -88.48701477 151.8089992 -86.26953125 148.078125 C-85.44787476 146.68424561 -85.44787476 146.68424561 -84.60961914 145.26220703 C-84.01656982 144.26817871 -83.42352051 143.27415039 -82.8125 142.25 C-81.53580222 140.08632451 -80.25978329 137.92224834 -78.984375 135.7578125 C-78.32501953 134.64180664 -77.66566406 133.52580078 -76.98632812 132.37597656 C-73.81074644 126.9787367 -70.6862344 121.55236 -67.5625 116.125 C-66.30341652 113.94008624 -65.04430177 111.75519051 -63.78515625 109.5703125 C-63.16012207 108.48524414 -62.53508789 107.40017578 -61.89111328 106.28222656 C-58.76319852 100.85340058 -55.63141552 95.42680719 -52.5 90 C-51.24998121 87.83334417 -49.99998122 85.6666775 -48.75 83.5 C-45 77 -45 77 -41.25 70.5 C-40.63116943 69.42733887 -40.01233887 68.35467773 -39.37475586 67.24951172 C-38.12564482 65.08442929 -36.87645871 62.91939018 -35.62719727 60.75439453 C-32.48797691 55.31384294 -29.35009437 49.87252784 -26.21484375 44.4296875 C-19.87180209 33.42052845 -13.51507256 22.41943375 -7.125 11.4375 C-6.22285767 9.88361572 -6.22285767 9.88361572 -5.30249023 8.29833984 C-4.75149658 7.35297363 -4.20050293 6.40760742 -3.6328125 5.43359375 C-3.14699707 4.59884521 -2.66118164 3.76409668 -2.16064453 2.90405273 C-1 1 -1 1 0 0 Z " fill="#B34190" transform="translate(93,0)"/>
<path d="M0 0 C2.8455204 3.40833646 5.18211602 6.83466984 7.36328125 10.69921875 C7.99500244 11.81248535 8.62672363 12.92575195 9.27758789 14.07275391 C9.77429489 14.95510712 9.77429489 14.95510712 10.28103638 15.85528564 C11.69495436 18.36686315 13.1185265 20.87292516 14.54136658 23.37945557 C15.27727543 24.67616536 16.01267376 25.97316501 16.74757385 27.27044678 C20.31957855 33.57436268 23.93633135 39.85209811 27.5625 46.125 C28.48349487 47.7196106 28.48349487 47.7196106 29.4230957 49.34643555 C30.66223343 51.4918156 31.9015719 53.63707971 33.14111328 55.78222656 C36.26324607 61.18670649 39.38136526 66.59350107 42.5 72 C43.11810547 73.07121094 43.73621094 74.14242187 44.37304688 75.24609375 C47.51222374 80.68646075 50.64999629 86.12762955 53.78515625 91.5703125 C59.9143752 102.2078457 66.06037666 112.83498326 72.25 123.4375 C72.82057129 124.41686523 73.39114258 125.39623047 73.97900391 126.40527344 C76.75331712 131.16511672 79.54064517 135.91633074 82.35546875 140.65234375 C82.87657227 141.53543213 83.39767578 142.41852051 83.93457031 143.32836914 C84.91306552 144.9863749 85.89778731 146.64072679 86.88964844 148.29077148 C87.98781261 150.15910099 89.00347867 152.07553516 90 154 C89.67 154.66 89.34 155.32 89 156 C85.42205548 152.44700628 81.84758614 148.89056349 78.27612305 145.33105469 C77.06382752 144.12374935 75.8506313 142.91734766 74.63647461 141.71191406 C62.96609311 130.12321082 62.96609311 130.12321082 57.61743164 123.83789062 C54.42932816 120.21524263 50.94133475 116.87977241 47.5 113.5 C43.37675426 109.45051536 39.299883 105.41641052 35.53125 101.03125 C31.58812608 96.44821339 27.30889602 92.23659911 23 88 C18.64514114 83.71820925 14.33710577 79.46443668 10.375 74.8125 C7.21152857 71.1156095 3.76699416 68.07509728 0 65 C-3.15072128 68.12572471 -6.29793136 71.2549331 -9.44213867 74.38720703 C-10.50892297 75.44900861 -11.57660853 76.50990558 -12.64526367 77.56982422 C-18.05416856 82.93566054 -23.37772331 88.31207416 -28.32983398 94.109375 C-32.21427947 98.50656048 -36.49970899 102.53549237 -40.68359375 106.64453125 C-44.0688171 109.99302523 -47.36445258 113.35660669 -50.46875 116.96875 C-55.11946199 122.37420611 -60.24689496 127.293088 -65.328125 132.2890625 C-69.53659598 136.4545899 -73.55532682 140.69676667 -77.41455078 145.1875 C-79.65015643 147.74326475 -82.01984819 150.11546671 -84.4375 152.5 C-85.30246094 153.3559375 -86.16742188 154.211875 -87.05859375 155.09375 C-87.69925781 155.7228125 -88.33992188 156.351875 -89 157 C-89.33 156.34 -89.66 155.68 -90 155 C-88.97460937 152.79882812 -88.97460937 152.79882812 -87.34375 150.03125 C-86.74111328 148.99871094 -86.13847656 147.96617187 -85.51757812 146.90234375 C-84.85177734 145.77957031 -84.18597656 144.65679687 -83.5 143.5 C-82.81100063 142.32471566 -82.12286205 141.14892631 -81.43554688 139.97265625 C-80.00464607 137.52536358 -78.5700355 135.08030353 -77.1328125 132.63671875 C-73.88704251 127.11128646 -70.69614255 121.55423074 -67.5 116 C-66.25026352 113.83318132 -65.00026252 111.66651519 -63.75 109.5 C-63.13125 108.4275 -62.5125 107.355 -61.875 106.25 C-55 94.33333333 -48.125 82.41666667 -41.25 70.5 C-40.63116943 69.42733887 -40.01233887 68.35467773 -39.37475586 67.24951172 C-38.12564482 65.08442929 -36.87645871 62.91939018 -35.62719727 60.75439453 C-32.48797691 55.31384294 -29.35009437 49.87252784 -26.21484375 44.4296875 C-19.87180209 33.42052845 -13.51507256 22.41943375 -7.125 11.4375 C-6.22285767 9.88361572 -6.22285767 9.88361572 -5.30249023 8.29833984 C-4.75149658 7.35297363 -4.20050293 6.40760742 -3.6328125 5.43359375 C-3.14699707 4.59884521 -2.66118164 3.76409668 -2.16064453 2.90405273 C-1 1 -1 1 0 0 Z " fill="#6655A3" transform="translate(93,0)"/>
<path d="M0 0 C0.69029297 -0.01611328 1.38058594 -0.03222656 2.09179688 -0.04882812 C8.27526704 -0.05468923 12.1658539 1.63639415 16.75 5.6875 C18.89451084 8.1218096 20.51850443 10.46829764 22.0625 13.3125 C22.4028125 12.86519531 22.743125 12.41789062 23.09375 11.95703125 C27.49802436 6.4634018 32.32784568 2.55738477 39.0625 0.3125 C55.64281466 -0.81252691 55.64281466 -0.81252691 61.45703125 2.87109375 C68.82288113 9.48422904 71.49116605 18.67357647 72.32015991 28.30651855 C72.40546357 31.34982155 72.40115254 34.37777479 72.35546875 37.421875 C72.35122391 38.51469788 72.34697906 39.60752075 72.34260559 40.73345947 C72.32599769 44.17673849 72.28838002 47.61940203 72.25 51.0625 C72.23493002 53.41665813 72.2212457 55.77082556 72.20898438 58.125 C72.17615299 63.85439882 72.12449695 69.58334557 72.0625 75.3125 C67.7725 75.3125 63.4825 75.3125 59.0625 75.3125 C59.04791748 73.87527588 59.03333496 72.43805176 59.01831055 70.95727539 C58.96008245 65.59521331 58.88285116 60.23356042 58.80004883 54.87182617 C58.76691454 52.55678986 58.73884728 50.241675 58.71606445 47.92651367 C58.6823069 44.58738922 58.62997969 41.24897719 58.57421875 37.91015625 C58.56782883 36.88479263 58.5614389 35.85942902 58.55485535 34.80299377 C58.408537 27.55634604 57.71617808 20.6295976 53.0625 14.8125 C49.09715398 11.83849048 44.83046249 11.83833798 40.0625 12.3125 C34.16992641 14.11023432 31.49677481 16.40639313 28.0625 21.3125 C26.43376854 24.78161567 25.80289262 27.55717572 25.74365234 31.37817383 C25.72378265 32.35881302 25.70391296 33.33945221 25.68344116 34.34980774 C25.66611435 35.91882088 25.66611435 35.91882088 25.6484375 37.51953125 C25.62907135 38.60006271 25.6097052 39.68059418 25.5897522 40.79386902 C25.53007897 44.2374996 25.48361959 47.68116383 25.4375 51.125 C25.39930899 53.46290502 25.3602566 55.80079615 25.3203125 58.13867188 C25.22438729 63.86316805 25.14031056 69.5877301 25.0625 75.3125 C20.7725 75.3125 16.4825 75.3125 12.0625 75.3125 C12.032771 73.19424805 12.032771 73.19424805 12.00244141 71.03320312 C11.92609503 65.77000772 11.83742288 60.50707833 11.74511719 55.24414062 C11.70694711 52.97075674 11.67207381 50.69731492 11.640625 48.42382812 C11.59471393 45.14692549 11.53676267 41.87041756 11.4765625 38.59375 C11.46501129 37.58509888 11.45346008 36.57644775 11.44155884 35.53723145 C11.28742852 28.08741718 10.88435338 20.38446352 6.0625 14.3125 C1.7924532 11.67511815 -3.07126006 11.76989271 -7.9375 12.3125 C-13.11264082 14.1038949 -15.76329198 16.90387775 -18.9375 21.3125 C-20.57091545 24.77946577 -21.19711665 27.55777363 -21.25634766 31.37817383 C-21.27621735 32.35881302 -21.29608704 33.33945221 -21.31655884 34.34980774 C-21.33388565 35.91882088 -21.33388565 35.91882088 -21.3515625 37.51953125 C-21.37092865 38.60006271 -21.3902948 39.68059418 -21.4102478 40.79386902 C-21.46992103 44.2374996 -21.51638041 47.68116383 -21.5625 51.125 C-21.60069101 53.46290502 -21.6397434 55.80079615 -21.6796875 58.13867188 C-21.77561271 63.86316805 -21.85968944 69.5877301 -21.9375 75.3125 C-26.2275 75.3125 -30.5175 75.3125 -34.9375 75.3125 C-34.9375 50.8925 -34.9375 26.4725 -34.9375 1.3125 C-30.6475 1.3125 -26.3575 1.3125 -21.9375 1.3125 C-21.6075 3.9525 -21.2775 6.5925 -20.9375 9.3125 C-20.41800781 8.83039063 -19.89851563 8.34828125 -19.36328125 7.8515625 C-18.66589844 7.21992187 -17.96851563 6.58828125 -17.25 5.9375 C-16.56550781 5.31101562 -15.88101562 4.68453125 -15.17578125 4.0390625 C-10.385183 0.34369701 -5.90735725 -0.02742506 0 0 Z " fill="#000000" transform="translate(475.9375,66.6875)"/>
<path d="M0 0 C4.13363381 3.87153746 7.30010763 8.02749905 10.5 12.6875 C11.56289217 14.21417557 12.62672567 15.74019611 13.69140625 17.265625 C14.23684082 18.04873047 14.78227539 18.83183594 15.34423828 19.63867188 C18.00429237 23.43224945 20.71904417 27.18565294 23.4375 30.9375 C24.24670898 32.05547974 24.24670898 32.05547974 25.07226562 33.19604492 C26.1675243 34.70886283 27.26306481 36.22147674 28.35888672 37.73388672 C31.07648173 41.486448 33.78794473 45.24343419 36.5 49 C37.58330362 50.50002146 38.66663696 52.00002146 39.75 53.5 C59.25 80.5 59.25 80.5 60.87744141 82.75341797 C61.95258911 84.24205913 63.02778384 85.73066632 64.10302734 87.21923828 C66.93700249 91.14274046 69.7699766 95.06696058 72.6015625 98.9921875 C73.19130859 99.80945313 73.78105469 100.62671875 74.38867188 101.46875 C75.51787978 103.03363654 76.64680161 104.59872956 77.77539062 106.1640625 C78.54012695 107.22367188 78.54012695 107.22367188 79.3203125 108.3046875 C79.76648926 108.92327637 80.21266602 109.54186523 80.67236328 110.17919922 C82.09708563 112.13314906 83.54508063 114.06845992 85 116 C84.67 116.66 84.34 117.32 84 118 C81.13409251 115.15912732 78.27172303 112.31473864 75.41235352 109.46728516 C74.44257727 108.50248541 73.4718993 107.53859105 72.50024414 106.57568359 C67.3817611 101.50207637 62.39294356 96.40013131 57.70532227 90.92578125 C54.47804377 87.2812898 50.97167178 83.90956674 47.5 80.5 C43.37675426 76.45051536 39.299883 72.41641052 35.53125 68.03125 C31.58812608 63.44821339 27.30889602 59.23659911 23 55 C18.64514114 50.71820925 14.33710577 46.46443668 10.375 41.8125 C7.21152857 38.1156095 3.76699416 35.07509728 0 32 C-3.15072128 35.12572471 -6.29793136 38.2549331 -9.44213867 41.38720703 C-10.50892297 42.44900861 -11.57660853 43.50990558 -12.64526367 44.56982422 C-18.05416856 49.93566054 -23.37772331 55.31207416 -28.32983398 61.109375 C-32.21427947 65.50656048 -36.49970899 69.53549237 -40.68359375 73.64453125 C-44.0688171 76.99302523 -47.36445258 80.35660669 -50.46875 83.96875 C-55.11946199 89.37420611 -60.24689496 94.293088 -65.328125 99.2890625 C-69.53659598 103.4545899 -73.55532682 107.69676667 -77.41455078 112.1875 C-79.65015643 114.74326475 -82.01984819 117.11546671 -84.4375 119.5 C-85.30246094 120.3559375 -86.16742188 121.211875 -87.05859375 122.09375 C-87.69925781 122.7228125 -88.33992188 123.351875 -89 124 C-89.33 123.34 -89.66 122.68 -90 122 C-89.21484375 119.9765625 -89.21484375 119.9765625 -87.9375 117.625 C-87.53402344 116.85414063 -87.13054687 116.08328125 -86.71484375 115.2890625 C-85 113 -85 113 -82.1640625 111.1875 C-78.19628253 108.44434347 -76.08482906 105.3457676 -73.4375 101.375 C-72.38391136 99.83908938 -71.32918589 98.3039581 -70.2734375 96.76953125 C-69.73428711 95.9801416 -69.19513672 95.19075195 -68.63964844 94.37744141 C-66.00805531 90.56170974 -63.28619545 86.81277169 -60.5625 83.0625 C-59.46995298 81.55345716 -58.37750552 80.04434224 -57.28515625 78.53515625 C-56.74262207 77.78637207 -56.20008789 77.03758789 -55.64111328 76.26611328 C-52.92351827 72.513552 -50.21205527 68.75656581 -47.5 65 C-46.41669638 63.49997854 -45.33336304 61.99997854 -44.25 60.5 C-43.71375 59.7575 -43.1775 59.015 -42.625 58.25 C-33.6875 45.875 -33.6875 45.875 -24.75 33.5 C-24.21286377 32.75621094 -23.67572754 32.01242188 -23.12231445 31.24609375 C-22.04817103 29.75894259 -20.9737928 28.271961 -19.89916992 26.78515625 C-17.0481973 22.83998909 -14.20237639 18.89122525 -11.36328125 14.9375 C-10.76902344 14.11121094 -10.17476563 13.28492188 -9.5625 12.43359375 C-8.41907768 10.84352208 -7.27708747 9.25241933 -6.13671875 7.66015625 C-5.62367187 6.94730469 -5.110625 6.23445313 -4.58203125 5.5 C-4.13061768 4.8709375 -3.6792041 4.241875 -3.21411133 3.59375 C-2 2 -2 2 0 0 Z " fill="#5D4C94" transform="translate(93,33)"/>
<path d="M0 0 C48.02452532 0 48.02452532 0 57.046875 8.72265625 C63.16438239 15.85566986 63.79321073 24.07642772 63.37109375 33.15625 C62.50195136 42.15873542 59.42187893 47.34122448 52.70703125 53.30859375 C44.49835052 58.43753856 36.40139423 58.38218779 26.9375 58.1875 C22.668125 58.125625 18.39875 58.06375 14 58 C14 70.87 14 83.74 14 97 C9.38 97 4.76 97 0 97 C0 64.99 0 32.98 0 0 Z M14 11 C14 22.88 14 34.76 14 47 C30.50607638 48.01593838 30.50607638 48.01593838 43.9375 41.5625 C48.66499702 35.6889431 48.76440612 30.38280844 48 23 C46.72697557 18.70830685 44.35147775 15.95795137 40.5625 13.625 C31.56224027 9.51961837 24.75146181 11 14 11 Z " fill="#000000" transform="translate(203,45)"/>
<path d="M0 0 C1.2379985 0.42257584 2.47599701 0.84515167 3.75151062 1.28053284 C7.05081992 2.40692556 10.34557154 3.54610893 13.63952637 4.68804932 C16.89308309 5.81350034 20.1508124 6.92672137 23.40820312 8.04101562 C30.41823499 10.44173703 37.42213772 12.85991744 44.42420197 15.28377533 C46.35102578 15.95068466 48.27799832 16.61716252 50.20501709 17.2835083 C57.57902409 19.8334303 64.95216558 22.38584089 72.32421875 24.94140625 C72.32421875 25.27140625 72.32421875 25.60140625 72.32421875 25.94140625 C13.58421875 25.94140625 -45.15578125 25.94140625 -105.67578125 25.94140625 C-102.56688715 24.3869592 -99.7603555 23.21430558 -96.49365234 22.11303711 C-95.45671234 21.76184311 -94.41977234 21.41064911 -93.35140991 21.04881287 C-92.22868683 20.67176712 -91.10596375 20.29472137 -89.94921875 19.90625 C-88.77356354 19.5087001 -87.59790833 19.11115021 -86.3866272 18.70155334 C-83.24414852 17.63933058 -80.10088398 16.57950338 -76.95715332 15.52099609 C-72.63582009 14.06551727 -68.31575947 12.60627034 -63.99591064 11.14639282 C-61.5475123 10.31942702 -59.09857709 9.49404904 -56.64910889 8.67025757 C-50.50965997 6.60044136 -44.38704567 4.49399828 -38.28613281 2.31298828 C-36.51660751 1.68463829 -36.51660751 1.68463829 -34.71133423 1.04359436 C-32.48465811 0.25039108 -30.26109403 -0.55162491 -28.04135132 -1.36402893 C-17.26622942 -5.19107371 -10.62596967 -3.70768208 0 0 Z " fill="#C2529E" transform="translate(109.67578125,132.05859375)"/>
<path d="M0 0 C6.14524199 5.20981854 11.92141976 10.52320395 17.15625 16.6640625 C21.2215489 21.33270338 25.58770197 25.66173381 30 30 C34.93933826 34.85646346 39.71151141 39.75021776 44.2265625 45.00390625 C47.48190121 48.66795488 51.00451948 52.06705043 54.5 55.5 C58.61314576 59.53956534 62.68227051 63.56283645 66.44140625 67.9375 C70.53607978 72.69683998 74.97689183 77.08611859 79.4375 81.5 C80.67790039 82.73363281 80.67790039 82.73363281 81.94335938 83.9921875 C83.95994959 85.99712113 85.97885236 87.99966253 88 90 C87.67 90.66 87.34 91.32 87 92 C86.04222656 91.27296875 85.08445313 90.5459375 84.09765625 89.796875 C76.32411957 83.91881696 68.48085978 78.1669174 60.50024414 72.57324219 C55.3005235 68.92676158 50.14160906 65.22791594 45 61.5 C38.51191099 56.79833447 31.98639433 52.15440499 25.43188477 47.54589844 C17.23378464 41.77256144 9.11624 35.8876062 1 30 C-1.78828763 31.31997698 -4.24324231 32.79529493 -6.73046875 34.6171875 C-7.7978125 35.39449219 -7.7978125 35.39449219 -8.88671875 36.1875 C-9.64597656 36.744375 -10.40523438 37.30125 -11.1875 37.875 C-12.81583496 39.0606808 -14.44475473 40.24555883 -16.07421875 41.4296875 C-16.89841309 42.0287793 -17.72260742 42.62787109 -18.57177734 43.24511719 C-22.19237198 45.86173032 -25.84434708 48.43270731 -29.5 51 C-37.61973803 56.7111336 -45.66911957 62.51645639 -53.70751953 68.34130859 C-56.04065154 70.02941284 -58.37721738 71.71265712 -60.71484375 73.39453125 C-62.26823546 74.51301209 -63.82162097 75.63150155 -65.375 76.75 C-66.12201172 77.28705566 -66.86902344 77.82411133 -67.63867188 78.37744141 C-71.02168968 80.81714657 -74.38409599 83.27475231 -77.69140625 85.81640625 C-78.24586426 86.24147461 -78.80032227 86.66654297 -79.37158203 87.10449219 C-80.82471016 88.22548969 -82.27011688 89.35647693 -83.71484375 90.48828125 C-86 92 -86 92 -89 92 C-88.58226318 91.5875 -88.16452637 91.175 -87.73413086 90.75 C-85.79914973 88.83611222 -83.86832199 86.91808329 -81.9375 85 C-81.28072266 84.35160156 -80.62394531 83.70320313 -79.94726562 83.03515625 C-76.69926618 79.8031568 -73.55340153 76.53827633 -70.56640625 73.0625 C-65.89996051 67.65013649 -60.76422601 62.71784638 -55.671875 57.7109375 C-51.5234873 53.60488029 -47.57700023 49.42189831 -43.7734375 44.99609375 C-39.84285935 40.57202892 -35.536629 36.50019556 -31.31640625 32.35546875 C-27.94117653 29.01685997 -24.65349639 25.6641677 -21.55859375 22.0625 C-17.46392022 17.30316002 -13.02310817 12.91388141 -8.5625 8.5 C-7.73556641 7.67757812 -6.90863281 6.85515625 -6.05664062 6.0078125 C-4.04005041 4.00287887 -2.02114764 2.00033747 0 0 Z " fill="#973679" transform="translate(93,64)"/>
<path d="M0 0 C9.16776561 6.14637393 13.40184027 13.92196881 16.07421875 24.390625 C17.88361613 37.62549129 17.63968377 51.42900486 9.46875 62.58203125 C4.24559522 68.8428989 -1.65213517 73.7302412 -10.0456543 74.61376953 C-28.71649701 75.5270495 -28.71649701 75.5270495 -35.92578125 70.390625 C-36.62832031 69.90464844 -37.33085938 69.41867188 -38.0546875 68.91796875 C-45.69141663 62.96891457 -49.21249857 54.77785465 -50.92578125 45.390625 C-52.18438731 32.80317524 -51.54988488 19.67176744 -44.17578125 8.953125 C-33.7971097 -3.44362157 -14.73842428 -7.30490837 0 0 Z M-30.92578125 13.390625 C-37.76128902 22.09194739 -38.54547666 32.63875985 -37.46875 43.3046875 C-36.13228923 50.9003998 -32.74793272 57.68715201 -26.36328125 62.203125 C-20.96997506 64.06626714 -15.28083002 64.53775564 -9.80078125 62.6640625 C-3.28204727 59.20800957 -0.43971498 54.09444828 2.07421875 47.390625 C4.69552504 36.59807427 3.58342 25.70718725 -1.80078125 16.015625 C-5.34129823 11.6420452 -8.6237974 8.7640319 -14.34375 8.1171875 C-21.14243511 7.86787042 -25.92582045 8.53839031 -30.92578125 13.390625 Z " fill="#000000" transform="translate(616.92578125,69.609375)"/>
<path d="M0 0 C5.06800688 -0.99698496 10.05375768 -1.76771683 15 0 C19.62234549 3.71084337 22.64249848 9.02108515 25.73242188 14.00341797 C27.40610942 16.63966927 29.29669224 19.06617853 31.25 21.5 C31.79140625 22.1909375 32.3328125 22.881875 32.890625 23.59375 C33.25671875 24.0578125 33.6228125 24.521875 34 25 C35.04965118 23.52661668 36.09903288 22.05304079 37.1472168 20.57861328 C38.0561769 19.30793922 38.97183026 18.04202894 39.89379883 16.78076172 C42.07593761 13.7826401 44.08371507 10.85251826 45.91796875 7.62109375 C47.75333786 4.51352619 49.18474716 2.27124263 52 0 C57.17160293 -0.9120156 61.81595332 -0.66825602 67 0 C66.38218521 3.480931 65.04029495 5.58840286 62.90234375 8.37890625 C62.26876953 9.21292969 61.63519531 10.04695313 60.98242188 10.90625 C60.30759766 11.7828125 59.63277344 12.659375 58.9375 13.5625 C57.571439 15.36575241 56.20555227 17.16913687 54.83984375 18.97265625 C52.63590172 21.86516206 50.42130643 24.74858068 48.19140625 27.62109375 C47.46824219 28.57113281 46.74507812 29.52117187 46 30.5 C45.38125 31.2940625 44.7625 32.088125 44.125 32.90625 C42.79681955 34.88600654 42.79681955 34.88600654 43.25634766 36.87963867 C44.10706864 39.30528271 45.22846046 40.96597289 46.7734375 43.01953125 C47.34626465 43.78797363 47.9190918 44.55641602 48.50927734 45.34814453 C49.12496582 46.16138184 49.7406543 46.97461914 50.375 47.8125 C51.64596585 49.51422395 52.91679735 51.21604826 54.1875 52.91796875 C54.82558594 53.76794434 55.46367188 54.61791992 56.12109375 55.49365234 C58.89193335 59.18978532 61.63685038 62.90461826 64.375 66.625 C64.84470215 67.25768799 65.3144043 67.89037598 65.79833984 68.54223633 C69 72.88578552 69 72.88578552 69 74 C63.59797676 75.1996701 58.28000514 76.0751621 53 74 C47.68311609 69.45894324 44.09502014 63.25866851 40.45947266 57.35888672 C38.4461481 54.10483153 36.34448162 51.02606472 34 48 C33.34 48 32.68 48 32 48 C30.3949445 50.05107281 28.90950852 52.1063145 27.4375 54.25 C26.98842285 54.87664551 26.5393457 55.50329102 26.07666016 56.14892578 C23.87242513 59.23112541 21.78448401 62.31169446 19.90234375 65.6015625 C15.02673644 73.47393038 15.02673644 73.47393038 11.04736328 74.50683594 C6.30410303 75.02164149 1.71428255 74.62471474 -3 74 C0.7794269 67.94256236 5.02585729 62.27801421 9.375 56.625 C10.22143066 55.51862183 10.22143066 55.51862183 11.08496094 54.38989258 C13.59296698 51.11450615 16.11108267 47.85159699 18.69140625 44.6328125 C19.43261719 43.68148437 20.17382812 42.73015625 20.9375 41.75 C21.58589844 40.94046875 22.23429688 40.1309375 22.90234375 39.296875 C24.30597837 37.03017789 24.30597837 37.03017789 23.25463867 34.62255859 C22.03706704 32.07748086 20.71400956 29.99507319 19.0234375 27.7421875 C18.43836426 26.95642334 17.85329102 26.17065918 17.25048828 25.36108398 C16.63157715 24.54067627 16.01266602 23.72026855 15.375 22.875 C14.10928424 21.17584886 12.84365883 19.4766304 11.578125 17.77734375 C10.38572932 16.18466171 9.19304596 14.59219499 8 13 C6.36813623 10.81735453 4.74381845 8.62989262 3.125 6.4375 C2.50882813 5.61121094 1.89265625 4.78492187 1.2578125 3.93359375 C0 2 0 2 0 0 Z " fill="#000000" transform="translate(720,68)"/>
<path d="M0 0 C0.99128906 -0.020625 1.98257812 -0.04125 3.00390625 -0.0625 C10.17974861 -0.09992291 16.1491746 1.10911706 23 3.25 C23 7.54 23 11.83 23 16.25 C21.205625 15.59 19.41125 14.93 17.5625 14.25 C11.96965126 12.52676481 6.90864939 11.83803182 1.0625 11.8125 C-0.00085571 11.79799805 -0.00085571 11.79799805 -1.08569336 11.78320312 C-5.76406485 11.85836657 -9.05046438 12.74843124 -13 15.25 C-15.32749345 18.74124017 -15.50299316 20.14222251 -15 24.25 C-12.22612556 27.66720795 -9.85255263 28.91756807 -5.640625 30.03125 C-4.60679687 30.31613281 -3.57296875 30.60101563 -2.5078125 30.89453125 C-1.43273437 31.17683594 -0.35765625 31.45914063 0.75 31.75 C20.15037253 36.91871239 20.15037253 36.91871239 26 45.25 C28.08985698 51.51957095 28.18082397 59.54634014 25.5625 65.6875 C22.27719969 71.19795051 16.75020826 74.24273623 10.875 76.39453125 C5.96364607 77.47879185 1.32718453 77.59035936 -3.6875 77.5625 C-4.65977539 77.56048584 -5.63205078 77.55847168 -6.63378906 77.55639648 C-14.41958261 77.4478633 -21.92054879 76.78972561 -29 73.25 C-29 68.96 -29 64.67 -29 60.25 C-25.14535955 61.02092809 -22.32112173 61.88915291 -18.75 63.3125 C-13.44799423 65.11491884 -8.67178931 65.65807247 -3.125 65.6875 C-2.41182617 65.69724854 -1.69865234 65.70699707 -0.96386719 65.71704102 C3.73368265 65.64154074 7.03506274 64.76507215 11 62.25 C13.58568982 58.37146526 13.31096017 55.67820814 12.73193359 51.15673828 C12.18134232 49.11429808 12.18134232 49.11429808 10.30712891 48.30419922 C9.57929199 48.09811035 8.85145508 47.89202148 8.1015625 47.6796875 C7.28719727 47.44088867 6.47283203 47.20208984 5.63378906 46.95605469 C4.76463867 46.72305664 3.89548828 46.49005859 3 46.25 C2.14374023 46.01442383 1.28748047 45.77884766 0.40527344 45.53613281 C-3.17767148 44.56162497 -6.76198604 43.595685 -10.359375 42.67578125 C-17.13671619 40.82831361 -22.59019093 38.54340572 -26.875 32.6875 C-29.67707344 26.61634087 -29.94959826 20.38634498 -27.75 14.0625 C-24.80155589 7.11938969 -20.79812036 4.0976726 -14 1.25 C-9.40067075 -0.28310975 -4.81811789 0.02430324 0 0 Z " fill="#000000" transform="translate(396,66.75)"/>
<path d="M0 0 C0.69738281 0.00451172 1.39476562 0.00902344 2.11328125 0.01367188 C3.82555803 0.0253998 5.53779033 0.04333347 7.25 0.0625 C7.25 4.3525 7.25 8.6425 7.25 13.0625 C5.27 12.835625 3.29 12.60875 1.25 12.375 C-6.19114987 11.81691376 -10.55475402 12.57730868 -16.5625 17.25 C-21.82983272 24.02228493 -22.20819157 30.8589528 -22.26171875 39.125 C-22.27966995 40.15689453 -22.29762115 41.18878906 -22.31611633 42.25195312 C-22.36995456 45.52209484 -22.40403022 48.79209281 -22.4375 52.0625 C-22.47069642 54.29038447 -22.50518821 56.51825004 -22.54101562 58.74609375 C-22.62566593 64.18479168 -22.6926033 69.62344894 -22.75 75.0625 C-27.04 75.0625 -31.33 75.0625 -35.75 75.0625 C-35.75 50.6425 -35.75 26.2225 -35.75 1.0625 C-31.46 1.0625 -27.17 1.0625 -22.75 1.0625 C-22.42 3.7025 -22.09 6.3425 -21.75 9.0625 C-20.6671875 7.9178125 -20.6671875 7.9178125 -19.5625 6.75 C-13.33100801 0.79546321 -8.38146283 -0.10298584 0 0 Z " fill="#000000" transform="translate(315.75,66.9375)"/>
<path d="M0 0 C4.29 0 8.58 0 13 0 C13 33.66 13 67.32 13 102 C8.71 102 4.42 102 0 102 C0 68.34 0 34.68 0 0 Z " fill="#000000" transform="translate(652,40)"/>
<path d="M0 0 C4.29 0 8.58 0 13 0 C13 24.42 13 48.84 13 74 C8.71 74 4.42 74 0 74 C0 49.58 0 25.16 0 0 Z " fill="#000000" transform="translate(689,68)"/>
<path d="M0 0 C4.29 0 8.58 0 13 0 C13 24.42 13 48.84 13 74 C8.71 74 4.42 74 0 74 C0 49.58 0 25.16 0 0 Z " fill="#000000" transform="translate(335,68)"/>
<path d="M0 0 C4.29 0 8.58 0 13 0 C13 5.28 13 10.56 13 16 C8.71 16 4.42 16 0 16 C0 10.72 0 5.44 0 0 Z " fill="#000000" transform="translate(689,40)"/>
<path d="M0 0 C4.29 0 8.58 0 13 0 C13 5.28 13 10.56 13 16 C8.71 16 4.42 16 0 16 C0 10.72 0 5.44 0 0 Z " fill="#000000" transform="translate(335,40)"/>
<path d="M0 0 C0.66 0 1.32 0 2 0 C0.83857315 4.35535069 -0.07699505 6.64619703 -4 9 C-2.80100302 5.9168649 -1.52299523 2.93720508 0 0 Z " fill="#6553A0" transform="translate(7,148)"/>
</svg>
