<svg width="143" height="146" viewBox="0 0 143 146" fill="none" xmlns="http://www.w3.org/2000/svg">
<rect width="142.5" height="146" rx="71.25" fill="#6B1AFF"/>
<path d="M63.7451 73H46.25V72.9754C46.25 68.1649 48.6368 63.7111 52.6353 61.0413L63.6097 53.721C65.0492 52.7613 65.4306 50.8297 64.471 49.3903C63.8681 48.4921 62.8839 48 61.8627 48C61.2721 48 60.6693 48.1722 60.128 48.529L49.1535 55.8494C43.4326 59.6634 40 66.0733 40 72.9754V74.2549V96.7451C40 97.4341 40.5536 98 41.2549 98H63.7451C64.4341 98 65 97.4464 65 96.7451V74.2549C65 73.5536 64.4464 73 63.7451 73Z" fill="white"/>
<path d="M101.245 73H83.75V72.9754C83.75 68.1649 86.1368 63.7111 90.1353 61.0413L101.11 53.721C102.549 52.7613 102.931 50.8297 101.971 49.3903C101.368 48.4921 100.384 48 99.3627 48C98.7721 48 98.1693 48.1722 97.6279 48.529L86.6535 55.8494C80.9079 59.6757 77.4877 66.0733 77.4877 72.9754V74.2549V96.7451C77.4877 97.4341 78.0413 98 78.7426 98H101.245C101.934 98 102.5 97.4464 102.5 96.7451V74.2549C102.5 73.5536 101.934 73 101.245 73Z" fill="white"/>
</svg>
